<svg width="419" height="519" viewBox="0 0 419 519" fill="none" xmlns="http://www.w3.org/2000/svg">
<path d="M284.432 247.473C284.432 292.009 251.459 340.873 209.621 340.873C167.783 340.873 134.811 292.009 134.811 247.473C134.811 202.937 142.896 156.873 209.621 156.873C276.347 156.873 284.432 202.937 284.432 247.473Z" fill="#68217A"/>
<path d="M419 377.744C419 501.969 325.368 519 209.5 519C93.6318 519 0 501.969 0 377.744C0 253.519 93.6318 199 209.5 199C325.368 199 419 253.519 419 377.744Z" fill="#68217A"/>
<path d="M209.621 340.873C251.459 340.873 284.432 292.009 284.432 247.473C284.432 202.937 276.347 156.873 209.621 156.873V340.873Z" fill="#512BD4"/>
<path d="M419 377.744C419 501.969 325.368 519 209.5 519V199C325.368 199 419 253.519 419 377.744Z" fill="#512BD4"/>
<ellipse cx="163" cy="114.5" rx="65" ry="114.5" fill="#68217A"/>
<ellipse cx="256" cy="114.5" rx="65" ry="114.5" fill="#512BD4"/>
<circle cx="164" cy="155" r="31" fill="#7D2FA4"/>
<circle cx="255" cy="155" r="31" fill="#7D2FA4"/>
</svg>
